<svg xmlns="http://www.w3.org/2000/svg" viewBox="0 0 700 700"><defs><style>.cls-1{fill:#fff;}</style></defs><g id="Layer_2" data-name="Layer 2"><g id="Layer_1-2" data-name="Layer 1"><rect width="140" height="700"/><polygon points="700 0 490 0 490 320 560 320 560 700 700 700 700 0"/><rect x="190" width="30" height="700"/><polygon points="410 320 410 0 380 0 380 290 350 290 350 0 320 0 320 320 410 320"/><polygon points="320 400 320 700 350 700 350 430 380 430 380 700 520 700 520 400 320 400"/><polygon class="cls-1" points="190 0 140 0 140 0 140 700 140 700 190 700 190 700 190 0 190 0"/><polygon class="cls-1" points="490 320 490 0 490 0 410 0 410 0 410 320 320 320 320 0 320 0 220 0 220 0 220 700 220 700 320 700 320 700 320 400 520 400 520 700 520 700 560 700 560 700 560 320 490 320"/><polygon class="cls-1" points="350 430 350 700 350 700 380 700 380 700 380 430 350 430"/><polygon class="cls-1" points="380 290 380 0 380 0 350 0 350 0 350 290 380 290"/></g></g></svg>