<svg xmlns="http://www.w3.org/2000/svg" viewBox="0 0 700 700"><defs><style>.cls-1{fill:#fff;}</style></defs><g id="Layer_2" data-name="Layer 2"><g id="Layer_1-2" data-name="Layer 1"><rect class="cls-1" x="192.19" y="9.59" width="29.59" height="680.82"/><rect class="cls-1" x="9.59" y="9.59" width="133.29" height="680.82"/><polygon class="cls-1" points="488.08 320.41 557.12 320.41 557.12 690.41 690.41 690.41 690.41 9.59 488.08 9.59 488.08 320.41"/><polygon class="cls-1" points="320.41 399.31 320.41 690.41 350 690.41 350 428.9 379.59 428.9 379.59 690.41 517.67 690.41 517.67 399.31 320.41 399.31"/><polygon class="cls-1" points="409.18 320.41 409.18 9.59 379.59 9.59 379.59 290.82 350 290.82 350 9.59 320.41 9.59 320.41 320.41 409.18 320.41"/><path d="M0,0V700H700V0ZM379.59,290.82V9.59h29.59V320.41H320.41V9.59H350V290.82ZM9.59,9.59H142.88V690.41H9.59Zm182.6,0h29.59V690.41H192.19ZM350,428.9V690.41H320.41V399.31H517.67v291.1H379.59V428.9ZM690.41,690.41H557.12v-370h-69V9.59H690.41Z"/></g></g></svg>